<?xml version="1.0" standalone="no"?>
<!DOCTYPE svg PUBLIC "-//W3C//DTD SVG 20010904//EN"
 "http://www.w3.org/TR/2001/REC-SVG-20010904/DTD/svg10.dtd">
<svg version="1.0" xmlns="http://www.w3.org/2000/svg"
 width="1624.000000pt" height="324.000000pt" viewBox="0 0 1624.000000 324.000000"
 preserveAspectRatio="xMidYMid meet">

<g transform="translate(0.000000,324.000000) scale(0.100000,-0.100000)"
fill="#000000" stroke="none">
<path d="M8325 2508 c-45 -19 -65 -21 -218 -19 -201 2 -211 -1 -292 -97 -110
-130 -133 -218 -82 -318 45 -88 63 -98 187 -104 125 -6 135 -12 180 -100 66
-132 79 -264 34 -360 -14 -30 -40 -72 -58 -95 -49 -59 -68 -102 -68 -151 0
-52 14 -78 106 -198 37 -49 66 -95 64 -104 -9 -48 -141 -36 -259 24 -70 35
-115 42 -150 24 -16 -9 -19 -22 -19 -75 0 -86 -13 -99 -94 -92 -170 15 -388
201 -474 403 -32 77 -46 183 -33 256 39 223 214 358 461 358 128 0 178 -18
255 -94 68 -66 95 -114 95 -166 0 -41 -14 -66 -63 -117 -65 -68 -76 -62 -111
59 -20 68 -44 88 -106 88 -95 -1 -162 -56 -176 -145 -12 -86 28 -158 111 -196
84 -39 250 -17 322 41 107 88 149 271 89 393 -34 70 -117 147 -199 186 -162
76 -326 74 -492 -6 -38 -18 -77 -33 -86 -33 -21 0 -41 24 -73 87 -49 98 -122
157 -228 183 -117 30 -258 -76 -289 -216 -23 -102 20 -208 98 -240 96 -40 243
21 243 101 0 19 -5 37 -10 40 -6 4 -39 -8 -74 -26 -72 -36 -102 -35 -142 8
-52 56 -39 138 32 203 58 53 99 60 167 27 63 -31 115 -80 124 -116 3 -14 -4
-111 -16 -214 -26 -210 -29 -360 -11 -439 30 -128 105 -238 252 -366 142 -125
271 -174 543 -207 71 -9 131 -18 133 -20 2 -2 -24 -37 -58 -77 -34 -40 -68
-85 -76 -100 -13 -26 -12 -29 25 -66 31 -30 40 -48 46 -89 12 -91 65 -148 164
-177 142 -42 295 8 370 120 17 26 31 56 31 66 0 40 28 77 62 80 46 4 42 21
-32 133 -34 52 -59 98 -56 103 3 6 61 20 128 32 187 33 274 58 373 105 105 51
191 117 256 199 142 175 175 347 129 671 -25 173 -25 199 1 255 51 114 139
156 230 110 95 -49 131 -169 70 -231 -36 -35 -46 -36 -122 -4 -73 31 -104 27
-94 -13 3 -15 19 -40 35 -56 24 -25 39 -30 89 -34 128 -9 231 59 231 153 0 56
-40 136 -101 200 -63 67 -116 89 -196 83 -110 -8 -182 -63 -253 -192 -23 -42
-47 -76 -53 -76 -6 0 -59 22 -118 50 -128 60 -188 74 -285 68 -99 -7 -188 -50
-269 -132 -74 -74 -106 -139 -112 -226 -10 -134 70 -256 213 -327 95 -46 150
-44 219 9 125 98 155 209 79 292 -79 85 -184 65 -253 -48 -50 -84 -95 -88
-134 -13 -45 87 -27 164 56 248 146 146 385 125 557 -50 151 -154 185 -323
101 -505 -79 -170 -252 -330 -419 -388 -52 -18 -88 -23 -162 -23 -52 0 -103 5
-114 11 -16 10 -12 16 40 56 83 64 101 85 88 106 -14 22 -68 27 -108 11 -17
-7 -65 -35 -106 -61 -41 -26 -80 -48 -86 -48 -18 0 -23 -32 -39 -240 -24 -314
-65 -420 -163 -420 -67 0 -125 50 -137 119 -14 86 36 233 110 321 85 101 121
192 113 287 -4 43 -11 60 -36 86 -20 21 -32 43 -32 60 0 37 61 102 124 134
100 49 132 106 86 148 -19 17 -26 18 -67 7 -25 -7 -71 -31 -102 -52 -60 -42
-91 -50 -91 -24 0 8 22 52 50 97 27 45 54 105 61 132 34 153 148 423 186 444
12 6 38 4 79 -7 76 -20 133 -6 179 43 40 41 55 92 56 193 2 70 -1 86 -24 125
-32 55 -103 118 -165 149 -68 33 -179 36 -247 6z"/>
<path d="M9653 1183 c-40 -5 -44 -17 -51 -132 l-5 -94 1779 6 c2048 8 2507 19
2592 59 24 12 27 19 30 74 l3 61 -1098 7 c-604 4 -1399 11 -1768 16 -655 10
-1418 11 -1482 3z"/>
<path d="M3205 1170 c-440 -3 -801 -7 -802 -8 -2 -1 -3 -27 -3 -57 0 -92 12
-97 263 -117 172 -13 2623 -22 3475 -13 l652 7 0 99 0 99 -1392 -2 c-766 -1
-1753 -5 -2193 -8z"/>
<path d="M1330 1123 c-287 -3 -748 -22 -835 -34 -239 -33 26 -55 1090 -89 171
-6 356 -10 413 -10 l102 0 0 48 c0 26 -4 53 -9 61 -13 20 -135 30 -351 28
-107 -1 -292 -3 -410 -4z"/>
<path d="M14368 1121 c-56 -12 -68 -27 -68 -82 l0 -49 103 0 c383 0 1456 47
1535 67 67 16 -60 37 -333 54 -210 13 -1186 21 -1237 10z"/>
</g>
</svg>
